<svg width="81" height="80" viewBox="0 0 81 80" fill="none" xmlns="http://www.w3.org/2000/svg">
<path d="M9.40527 53C9.40527 52.4477 9.85185 52 10.4042 52C11.7686 52 14.3924 52 17.4053 52L62.4053 52C65.4785 52 67.9051 52 69.0977 52C69.5935 52 70.0453 52.2802 70.2671 52.7236C70.358 52.9054 70.4071 53.1064 70.3994 53.3094C70.2368 57.5843 66.7199 61 62.4053 61H17.4053C12.987 61 9.40527 57.4183 9.40527 53Z" fill="white"/>
<path d="M12.4053 57.4445C12.4053 57.199 12.6039 57 12.8493 57C13.8654 57 16.5127 57 19.6184 57L60.1922 57C63.3906 57 65.8123 57 66.6426 57C66.8434 57 67.0346 57.079 67.1776 57.22C67.3233 57.3636 67.413 57.5613 67.3768 57.7626C67.0504 59.5772 63.9583 61 60.1922 61H19.6184C15.6347 61 12.4053 59.4081 12.4053 57.4445Z" fill="#DFCFEE"/>
<path d="M17.4053 18C15.1962 18 13.4053 19.7909 13.4053 22V50L13.4053 54H66.4053V50V22C66.4053 19.7909 64.6145 18 62.4053 18H17.4053Z" fill="white"/>
<path fill-rule="evenodd" clip-rule="evenodd" d="M34.4053 53C32.7484 53 31.4053 53.2059 31.4053 54.2C31.4053 55.1941 32.7484 56 34.4053 56H45.4053C47.0621 56 48.4053 55.1941 48.4053 54.2C48.4053 53.2059 47.0621 53 45.4053 53H34.4053Z" fill="#DFCFEE"/>
<path fill-rule="evenodd" clip-rule="evenodd" d="M17.4054 20H62.4054C63.51 20 64.4054 20.8954 64.4054 22V50V52H45.4053H34.4053H17.4053H15.4054V50V22C15.4054 20.8954 16.3008 20 17.4054 20ZM47.4053 54L32.4053 54V54.0001C32.4053 55.1046 33.3007 56.0001 34.4053 56.0001H45.4053C46.5098 56.0001 47.4053 55.1046 47.4053 54.0001V54ZM31.4053 54.0001V54L17.4053 54H17.3876H17.37H17.3524H17.3347H17.3171H17.2995H17.2819H17.2643H17.2468H17.2292H17.2116H17.1941H17.1765H17.159H17.1415H17.124H17.1065H17.089H17.0715H17.054H17.0366H17.0191H17.0017H16.9842H16.9668H16.9494H16.932H16.9146H16.8972H16.8799H16.8625H16.8451H16.8278H16.8105H16.7931H16.7758H16.7585H16.7412H16.7239H16.7067H16.6894H16.6722H16.6549H16.6377H16.6205H16.6033H16.5861H16.5689H16.5517H16.5345H16.5174H16.5002H16.4831H16.466H16.4489H16.4318H16.4147H16.3976H16.3806H16.3635H16.3465H16.3294H16.3124H16.2954H16.2784H16.2614H16.2444H16.2275H16.2105H16.1936H16.1766H16.1597H16.1428H16.1259H16.109H16.0922H16.0753H16.0585H16.0416H16.0248H16.008H15.9912H15.9744H15.9576H15.9409H15.9241H15.9074H15.8907H15.874H15.8573H15.8406H15.8239H15.8072H15.7906H15.7739H15.7573H15.7407H15.7241H15.7075H15.6909H15.6744H15.6578H15.6413H15.6248H15.6083H15.5918H15.5753H15.5588H15.5423H15.5259H15.5095H15.493H15.4766H15.4602H15.4439H15.4275H15.4112H15.3948H15.3785H15.3622H15.3459H15.3296H15.3133H15.2971H15.2808H15.2646H15.2484H15.2322H15.216H15.1998H15.1837H15.1675H15.1514H15.1353H15.1192H15.1031H15.087H15.0709H15.0549H15.0388H15.0228H15.0068H14.9908H14.9749H14.9589H14.943H14.927H14.9111H14.8952H14.8793H14.8634H14.8476H14.8317H14.8159H14.8001H14.7843H14.7685H14.7527H14.737H14.7213H14.7055H14.6898H14.6741H14.6585H14.6428H14.6271H14.6115H14.5959H14.5803H14.5647H14.5491H14.5336H14.518H14.5025H14.487H14.4715H14.4561H14.4406H14.4251H14.4097H14.3943H14.3789H14.3635H14.3482H14.3328H14.3175H14.3022H14.2869H14.2716H14.2563H14.2411H14.2258H14.2106H14.1954H14.1802H14.1651H14.1499H14.1348H14.1196H14.1045H14.0895H14.0744H14.0593H14.0443H14.0293H14.0143H13.9993H13.9843H13.9694H13.9544H13.9395H13.9246H13.9097H13.8949H13.88H13.8652H13.8504H13.8356H13.8208H13.806H13.7913H13.7766H13.7619H13.7472H13.7325H13.7178H13.7032H13.6886H13.674H13.6594H13.6448H13.6303H13.6157H13.6012H13.5867H13.5723H13.5578H13.5434H13.5289H13.5145H13.5001H13.4858H13.4714H13.4571H13.4428H13.4285H13.4142H13.4053H13.3999H13.3857H13.3715H13.3573H13.3431H13.3289H13.3148H13.3007H13.2866H13.2725H13.2584H13.2443H13.2303H13.2163H13.2023H13.1883H13.1744H13.1604H13.1465H13.1326H13.1187H13.1049H13.091H13.0772H13.0634H13.0496H13.0359H13.0221H13.0084H12.9947H12.981H12.9673H12.9537H12.9401H12.9265H12.9129H12.8993H12.8858H12.8722H12.8587H12.8453H12.8318H12.8183H12.8049H12.7915H12.7781H12.7648H12.7514H12.7381H12.7248H12.7115H12.6982H12.685H12.6718H12.6586H12.6454H12.6322H12.6191H12.606H12.5929H12.5798H12.5668H12.5537H12.5407H12.5277H12.5148H12.5018H12.4889H12.476H12.4631H12.4502H12.4374H12.4245H12.4117H12.399H12.3862H12.3735H12.3608H12.3481H12.3354H12.3227H12.3101H12.2975H12.2849H12.2724H12.2598H12.2473H12.2348H12.2223H12.2099H12.1974H12.185H12.1726H12.1603H12.1479H12.1356H12.1233H12.111H12.0988H12.0865H12.0743H12.0621H12.05H12.0378H12.0257H12.0136H12.0015H11.9895H11.9775H11.9654H11.9535H11.9415H11.9296H11.9176H11.9058H11.8939H11.882H11.8702H11.8584H11.8466H11.8349H11.8232H11.8114H11.7998H11.7881H11.7765H11.7649H11.7533H11.7417H11.7302H11.7186H11.7071H11.6957H11.6842H11.6728H11.6614H11.65H11.6387H11.6273H11.616H11.6047H11.5935H11.5822H11.571H11.5599H11.5487H11.5376H11.5264H11.5154H11.5043H11.4932H11.4882C11.9643 56.8377 14.4323 59 17.4053 59H62.4053C65.3782 59 67.8468 56.8372 68.3225 54H68.3197H68.3101H68.3006H68.291H68.2814H68.2717H68.2621H68.2524H68.2426H68.2329H68.2231H68.2133H68.2035H68.1937H68.1838H68.1739H68.164H68.154H68.144H68.134H68.124H68.114H68.1039H68.0938H68.0837H68.0735H68.0633H68.0531H68.0429H68.0327H68.0224H68.0121H68.0018H67.9914H67.981H67.9706H67.9602H67.9498H67.9393H67.9288H67.9183H67.9077H67.8971H67.8865H67.8759H67.8653H67.8546H67.8439H67.8332H67.8224H67.8117H67.8009H67.79H67.7792H67.7683H67.7574H67.7465H67.7356H67.7246H67.7136H67.7026H67.6916H67.6805H67.6694H67.6583H67.6472H67.636H67.6248H67.6136H67.6024H67.5911H67.5799H67.5686H67.5572H67.5459H67.5345H67.5231H67.5117H67.5002H67.4888H67.4773H67.4658H67.4542H67.4427H67.4311H67.4195H67.4078H67.3962H67.3845H67.3728H67.3611H67.3493H67.3375H67.3257H67.3139H67.3021H67.2902H67.2783H67.2664H67.2545H67.2425H67.2305H67.2185H67.2065H67.1944H67.1823H67.1702H67.1581H67.146H67.1338H67.1216H67.1094H67.0972H67.0849H67.0726H67.0603H67.048H67.0356H67.0232H67.0109H66.9984H66.986H66.9735H66.961H66.9485H66.936H66.9234H66.9109H66.8983H66.8856H66.873H66.8603H66.8476H66.8349H66.8222H66.8094H66.7967H66.7839H66.771H66.7582H66.7453H66.7324H66.7195H66.7066H66.6936H66.6807H66.6677H66.6546H66.6416H66.6285H66.6154H66.6023H66.5892H66.5761H66.5629H66.5497H66.5365H66.5232H66.51H66.4967H66.4834H66.4701H66.4567H66.4433H66.4299H66.4165H66.4031H66.3896H66.3762H66.3627H66.3492H66.3356H66.3221H66.3085H66.2949H66.2812H66.2676H66.2539H66.2402H66.2265H66.2128H66.1991H66.1853H66.1715H66.1577H66.1438H66.13H66.1161H66.1022H66.0883H66.0743H66.0604H66.0464H66.0324H66.0184H66.0043H65.9903H65.9762H65.9621H65.948H65.9338H65.9196H65.9055H65.8912H65.877H65.8628H65.8485H65.8342H65.8199H65.8056H65.7912H65.7768H65.7625H65.748H65.7336H65.7192H65.7047H65.6902H65.6757H65.6612H65.6466H65.632H65.6174H65.6028H65.5882H65.5735H65.5589H65.5442H65.5295H65.5147H65.5H65.4852H65.4704H65.4556H65.4408H65.4259H65.4111H65.3962H65.3813H65.3663H65.3514H65.3364H65.3214H65.3064H65.2914H65.2764H65.2613H65.2462H65.2311H65.216H65.2009H65.1857H65.1705H65.1553H65.1401H65.1249H65.1096H65.0943H65.079H65.0637H65.0484H65.0331H65.0177H65.0023H64.9869H64.9715H64.956H64.9406H64.9251H64.9096H64.8941H64.8785H64.863H64.8474H64.8318H64.8162H64.8005H64.7849H64.7692H64.7535H64.7378H64.7221H64.7064H64.6906H64.6748H64.659H64.6432H64.6274H64.6115H64.5957H64.5798H64.5639H64.5479H64.532H64.516H64.5001H64.4841H64.468H64.452H64.436H64.4199H64.4038H64.3877H64.3716H64.3554H64.3393H64.3231H64.3069H64.2907H64.2745H64.2582H64.242H64.2257H64.2094H64.1931H64.1767H64.1604H64.144H64.1276H64.1112H64.0948H64.0783H64.0619H64.0454H64.0289H64.0124H63.9959H63.9793H63.9628H63.9462H63.9296H63.913H63.8964H63.8797H63.8631H63.8464H63.8297H63.813H63.7962H63.7795H63.7627H63.7459H63.7292H63.7123H63.6955H63.6787H63.6618H63.6449H63.628H63.6111H63.5942H63.5772H63.5603H63.5433H63.5263H63.5093H63.4922H63.4752H63.4581H63.441H63.4239H63.4068H63.3897H63.3726H63.3554H63.3382H63.321H63.3038H63.2866H63.2693H63.2521H63.2348H63.2175H63.2002H63.1829H63.1656H63.1482H63.1308H63.1134H63.096H63.0786H63.0612H63.0437H63.0263H63.0088H62.9913H62.9738H62.9563H62.9387H62.9212H62.9036H62.886H62.8684H62.8508H62.8331H62.8155H62.7978H62.7801H62.7624H62.7447H62.727H62.7092H62.6915H62.6737H62.6559H62.6381H62.6203H62.6025H62.5846H62.5667H62.5489H62.531H62.5131H62.4951H62.4772H62.4592H62.4413H62.4233H62.4053L48.4053 54V54.0001C48.4053 55.6569 47.0621 57.0001 45.4053 57.0001H34.4053C32.7484 57.0001 31.4053 55.6569 31.4053 54.0001ZM13.4054 52L13.4054 50V22C13.4054 19.7909 15.1963 18 17.4054 18H62.4054C64.6145 18 66.4054 19.7909 66.4054 22V50V52H69.0977C69.5935 52 70.0453 52.2802 70.2671 52.7236C70.358 52.9054 70.4071 53.1064 70.3994 53.3094C70.2368 57.5843 66.7199 61 62.4053 61H17.4053C12.987 61 9.40527 57.4183 9.40527 53C9.40527 52.4477 9.85185 52 10.4042 52H13.4054ZM18.4053 23H61.4053V49H18.4053V23ZM17.4053 22H18.4053H61.4053H62.4053V23V49V50H61.4053H18.4053H17.4053V49V23V22Z" fill="#50007F"/>
<path d="M61.4053 23H18.4053V49H61.4053V23Z" fill="#DFCFEE"/>
<path fill-rule="evenodd" clip-rule="evenodd" d="M32.3611 26.9184C31.2368 26.9184 30.3218 27.8349 30.3218 28.9611V43.0735C30.3218 44.1997 31.2368 45.1162 32.3611 45.1162H46.4497C47.574 45.1162 48.489 44.1997 48.489 43.0735V28.9611C48.489 27.8349 47.574 26.9184 46.4497 26.9184H32.3611ZM46.4497 45.85H32.3611C30.8318 45.85 29.5883 44.6043 29.5883 43.0732V28.9608C29.5883 27.4296 30.8318 26.184 32.3611 26.184H46.4497C47.9783 26.184 49.2218 27.4296 49.2218 28.9608V43.0732C49.2218 44.6043 47.9783 45.85 46.4497 45.85Z" fill="#50007F"/>
<path fill-rule="evenodd" clip-rule="evenodd" d="M32.3612 45.4832H46.4497C47.7783 45.4832 48.8554 44.4042 48.8554 43.0727H29.9554C29.9554 44.4042 31.0326 45.4832 32.3612 45.4832Z" fill="#E6DBF2"/>
<path fill-rule="evenodd" clip-rule="evenodd" d="M46.4494 26.5505H32.3608C31.0322 26.5505 29.9551 27.6295 29.9551 28.961V30.523H48.8551V28.961C48.8551 27.6295 47.7779 26.5505 46.4494 26.5505Z" fill="#E6DBF2"/>
<mask id="mask0" mask-type="alpha" maskUnits="userSpaceOnUse" x="29" y="26" width="21" height="21">
<path fill-rule="evenodd" clip-rule="evenodd" d="M29.4053 46.0338H49.4053V26H29.4053V46.0338Z" fill="white"/>
</mask>
<g mask="url(#mask0)">
<path fill-rule="evenodd" clip-rule="evenodd" d="M29.9553 43.0726H48.8553V30.5229H29.9553V43.0726Z" fill="white"/>
<path fill-rule="evenodd" clip-rule="evenodd" d="M46.4494 44.9321H32.3608C31.4637 44.9321 30.7123 44.2903 30.5416 43.4396H48.2694C48.0987 44.2903 47.3473 44.9321 46.4494 44.9321ZM32.3609 27.1014H46.4494C47.473 27.1014 48.3059 27.9357 48.3059 28.961V30.1559H30.5051V28.961C30.5051 27.9357 31.338 27.1014 32.3609 27.1014ZM30.5051 42.7059H48.3059V30.8903H30.5051V42.7059ZM46.4501 26.0009H32.3615C30.7315 26.0009 29.4065 27.3289 29.4065 28.9616V43.0733C29.4065 44.7061 30.7315 46.0347 32.3615 46.0347H46.4501C48.0801 46.0347 49.4065 44.7061 49.4065 43.0733V28.9616C49.4065 27.3289 48.0801 26.0009 46.4501 26.0009Z" fill="#50007F"/>
<path fill-rule="evenodd" clip-rule="evenodd" d="M32.4714 29.2859C32.5064 29.2859 32.5435 29.2831 32.5778 29.2752C32.6135 29.268 32.6471 29.258 32.6807 29.2444C32.715 29.2301 32.7457 29.2137 32.7764 29.1936C32.8057 29.1729 32.835 29.1507 32.86 29.1242C32.9621 29.0226 33.0214 28.881 33.0214 28.735C33.0214 28.5912 32.9621 28.4488 32.86 28.3465C32.7321 28.2184 32.5435 28.1597 32.3628 28.1962C32.3278 28.2034 32.2942 28.2134 32.26 28.227C32.2278 28.2406 32.1957 28.2578 32.165 28.2785C32.1357 28.2978 32.1078 28.3207 32.0814 28.3465C32.0564 28.3708 32.0328 28.4001 32.0135 28.4295C31.9935 28.461 31.9778 28.4917 31.9621 28.5254C31.95 28.559 31.9392 28.5926 31.9314 28.6284C31.9242 28.6634 31.9214 28.6999 31.9214 28.735C31.9214 28.881 31.9807 29.0226 32.0814 29.1242C32.1842 29.2273 32.3264 29.2859 32.4714 29.2859Z" fill="#50007F"/>
<path fill-rule="evenodd" clip-rule="evenodd" d="M34.5368 29.286C34.8404 29.286 35.0868 29.0406 35.0868 28.7351C35.0868 28.431 34.8404 28.1841 34.5368 28.1841C34.2332 28.1841 33.9868 28.431 33.9868 28.7351C33.9868 29.0406 34.2332 29.286 34.5368 29.286Z" fill="#50007F"/>
<path fill-rule="evenodd" clip-rule="evenodd" d="M36.0951 28.9468C36.1101 28.979 36.1258 29.0112 36.1465 29.0405C36.1658 29.0713 36.1894 29.0992 36.2137 29.1257C36.2387 29.1507 36.268 29.1729 36.2972 29.1936C36.328 29.2144 36.3594 29.2301 36.393 29.2451C36.4265 29.258 36.4608 29.268 36.4958 29.2752C36.5301 29.2831 36.5672 29.2859 36.6044 29.2859C36.748 29.2859 36.8894 29.2273 36.9915 29.1257C37.0172 29.0992 37.0394 29.0713 37.0601 29.0405C37.0808 29.0112 37.0965 28.979 37.1115 28.9468C37.1244 28.9132 37.1344 28.8795 37.1422 28.8438C37.1501 28.8073 37.1522 28.7722 37.1522 28.7357C37.1522 28.5912 37.093 28.4488 36.9915 28.3465C36.8637 28.2184 36.6751 28.1597 36.4958 28.1962C36.4608 28.202 36.4265 28.2141 36.393 28.227C36.3594 28.2406 36.328 28.2578 36.2972 28.2785C36.268 28.2978 36.2387 28.3207 36.2137 28.3465C36.1894 28.3708 36.1658 28.4001 36.1465 28.4295C36.1258 28.461 36.1101 28.4917 36.0951 28.5254C36.0815 28.559 36.0722 28.5926 36.0644 28.6284C36.0572 28.6634 36.0522 28.6999 36.0522 28.7357C36.0522 28.7722 36.0572 28.8073 36.0644 28.8438C36.0722 28.8795 36.0815 28.9132 36.0951 28.9468Z" fill="#50007F"/>
</g>
<path d="M48.4053 26.5L56.4053 34.75M52.0719 26L57.4053 31.5M21.9053 43L24.5719 45.75" stroke="white" stroke-linecap="round" stroke-linejoin="round"/>
</svg>
