<svg width="80" height="80" viewBox="0 0 80 80" fill="none" xmlns="http://www.w3.org/2000/svg">
<rect x="21.5148" y="29.4486" width="36.972" height="30.5421" fill="white"/>
<path fill-rule="evenodd" clip-rule="evenodd" d="M57.683 36.4651V31.8598H20.7111V36.465C21.283 36.6803 21.8908 36.7909 22.5041 36.7909C23.1548 36.7909 23.7991 36.6664 24.4012 36.4246L24.4206 36.4167C24.9422 36.2047 25.4229 35.9078 25.8427 35.5393C25.9045 35.4851 25.9649 35.4293 26.024 35.372L26.0452 35.3513C26.2817 35.1191 26.4934 34.8649 26.6773 34.5927L26.6807 34.5977C26.8639 34.868 27.0744 35.1206 27.3095 35.3513L27.3307 35.372C27.4599 35.4973 27.5957 35.6154 27.7374 35.7257C28.101 36.0089 28.5036 36.2417 28.9341 36.4167L28.9535 36.4246C29.5555 36.6664 30.1999 36.7909 30.8506 36.7909C31.5012 36.7909 32.1456 36.6664 32.7477 36.4246L32.767 36.4167C33.3156 36.1937 33.8189 35.8769 34.2537 35.4816C34.2932 35.4457 34.3321 35.4092 34.3704 35.372L34.3917 35.3513C34.6282 35.1191 34.8399 34.8649 35.0239 34.5926L35.0274 34.5977C35.2106 34.868 35.421 35.1206 35.6561 35.3513L35.6774 35.372C35.8065 35.4973 35.9423 35.6154 36.084 35.7257C36.4476 36.0089 36.8502 36.2417 37.2808 36.4167L37.3001 36.4246C37.9022 36.6664 38.5465 36.7909 39.1972 36.7909C39.8479 36.7909 40.4922 36.6664 41.0943 36.4246L41.1136 36.4167C41.6622 36.1937 42.1655 35.8769 42.6003 35.4816C42.6398 35.4457 42.6787 35.4092 42.7171 35.372L42.7383 35.3513C42.9748 35.1191 43.1865 34.8649 43.3704 34.5927L43.3738 34.5977C43.557 34.868 43.7675 35.1206 44.0026 35.3513L44.0238 35.372C44.153 35.4973 44.2888 35.6154 44.4305 35.7257C44.7941 36.0089 45.1967 36.2417 45.6272 36.4167L45.6466 36.4246C46.2486 36.6664 46.893 36.7909 47.5437 36.7909C48.1943 36.7909 48.8387 36.6664 49.4408 36.4246L49.4601 36.4167C50.0087 36.1937 50.512 35.8769 50.9468 35.4816C50.9863 35.4457 51.0252 35.4092 51.0635 35.372L51.0848 35.3513C51.3213 35.1191 51.5329 34.8649 51.7169 34.5927L51.7204 34.5977C51.9036 34.868 52.114 35.1206 52.3491 35.3513L52.3704 35.372C52.4995 35.4973 52.6353 35.6154 52.7771 35.7257C53.1406 36.0089 53.5433 36.2417 53.9738 36.4167L53.9931 36.4246C54.5952 36.6664 55.2395 36.7909 55.8902 36.7909C56.5035 36.7909 57.1111 36.6803 57.683 36.4651Z" fill="#DFCFEE"/>
<path fill-rule="evenodd" clip-rule="evenodd" d="M23.926 18.1963C23.6913 18.1963 23.4684 18.2988 23.3157 18.4769L18.4933 24.1031C18.3684 24.2488 18.2998 24.4343 18.2998 24.6262V29.4641V29.8505C18.2998 29.9424 18.3152 30.0307 18.3436 30.1129C18.401 30.5353 18.5141 30.9496 18.681 31.345L18.6893 31.3645C18.9407 31.9531 19.3066 32.4882 19.7666 32.9396L19.7879 32.9603C19.8262 32.9975 19.8651 33.034 19.9046 33.0699C20.3394 33.4653 20.8427 33.7821 21.3913 34.0051L21.4106 34.0129C22.0127 34.2548 22.657 34.3792 23.3077 34.3792C23.9584 34.3792 24.6027 34.2548 25.2048 34.0129L25.2241 34.0051C25.7458 33.793 26.2265 33.4962 26.6463 33.1276C26.7081 33.0734 26.7685 33.0176 26.8276 32.9603L26.8488 32.9396C27.0853 32.7075 27.2969 32.4533 27.4809 32.181L27.4843 32.186C27.6675 32.4564 27.878 32.7089 28.113 32.9396L28.1343 32.9603C28.2635 33.0856 28.3993 33.2037 28.541 33.3141C28.9046 33.5973 29.3072 33.83 29.7377 34.0051L29.7571 34.0129C30.3591 34.2548 31.0035 34.3792 31.6542 34.3792C32.3048 34.3792 32.9492 34.2548 33.5512 34.0129L33.5706 34.0051C34.1192 33.7821 34.6225 33.4653 35.0573 33.0699C35.0968 33.034 35.1357 32.9975 35.174 32.9603L35.1953 32.9396C35.4318 32.7074 35.6435 32.4532 35.8275 32.1809L35.8309 32.186C36.0141 32.4564 36.2246 32.7089 36.4597 32.9396L36.4809 32.9603C36.6101 33.0856 36.7459 33.2037 36.8876 33.3141C37.2512 33.5973 37.6538 33.83 38.0844 34.0051L38.1037 34.0129C38.7058 34.2548 39.3501 34.3792 40.0008 34.3792C40.6515 34.3792 41.2958 34.2548 41.8979 34.0129L41.9172 34.0051C42.4658 33.7821 42.9691 33.4653 43.4039 33.0699C43.4434 33.034 43.4823 32.9975 43.5206 32.9603L43.5419 32.9396C43.7784 32.7075 43.99 32.4533 44.174 32.181L44.1774 32.186C44.3606 32.4564 44.5711 32.7089 44.8062 32.9396L44.8274 32.9603C44.9566 33.0856 45.0924 33.2037 45.2341 33.3141C45.5977 33.5973 46.0003 33.83 46.4308 34.0051L46.4502 34.0129C47.0522 34.2548 47.6966 34.3792 48.3473 34.3792C48.9979 34.3792 49.6423 34.2548 50.2444 34.0129L50.2637 34.0051C50.8123 33.7821 51.3156 33.4653 51.7504 33.0699C51.7899 33.034 51.8288 32.9975 51.8671 32.9603L51.8884 32.9396C52.1249 32.7075 52.3365 32.4532 52.5205 32.181L52.5239 32.186C52.7071 32.4564 52.9176 32.7089 53.1527 32.9396L53.174 32.9603C53.3031 33.0856 53.4389 33.2037 53.5806 33.3141C53.9442 33.5973 54.3468 33.83 54.7774 34.0051L54.7967 34.0129C55.3988 34.2548 56.0431 34.3792 56.6938 34.3792C57.3445 34.3792 57.9888 34.2548 58.5909 34.0129L58.6102 34.0051C59.1588 33.7821 59.6621 33.4653 60.0969 33.0699C60.1364 33.034 60.1753 32.9975 60.2136 32.9603L60.2349 32.9396C60.6949 32.4882 61.0608 31.9531 61.3122 31.3645L61.3205 31.345C61.4874 30.9495 61.6006 30.5353 61.6579 30.1128C61.6863 30.0306 61.7017 29.9423 61.7017 29.8505V29.4794C61.7017 29.4743 61.7017 29.4692 61.7017 29.4641L61.7017 24.6262C61.7017 24.4461 61.6412 24.2712 61.5299 24.1296L57.1094 18.5034C56.957 18.3095 56.724 18.1963 56.4774 18.1963H23.926Z" fill="#DFCFEE"/>
<path d="M23.9259 19.8037H56.0755L60.496 25.4299H19.1035L23.9259 19.8037Z" fill="white"/>
<rect x="25.5334" y="39.0934" width="8.84112" height="20.8972" fill="#DFCFEE"/>
<rect x="27.1409" y="39.8972" width="7.23364" height="20.0935" fill="white"/>
<rect x="28.7484" y="42.3084" width="4.01869" height="2.41122" fill="#DFCFEE"/>
<path d="M39.197 39.0934H54.468V52.757H39.197V39.0934Z" fill="#DFCFEE"/>
<path fill-rule="evenodd" clip-rule="evenodd" d="M23.926 18C23.6341 18 23.3567 18.1276 23.1667 18.3492L18.3443 23.9754C18.1889 24.1566 18.1036 24.3875 18.1036 24.6262V29.8505C18.1036 30.1451 18.2309 30.4099 18.4336 30.5929C18.4952 30.8492 18.5779 31.1008 18.681 31.3452L18.6893 31.3647C18.9407 31.9534 19.3066 32.4884 19.7666 32.9398L19.7879 32.9606C19.8262 32.9978 19.8651 33.0343 19.9046 33.0702C20.0954 33.2437 20.2995 33.4021 20.5147 33.544V58.4907H18.7017C17.8732 58.4907 17.2017 59.1622 17.2017 59.9907C17.2017 60.8191 17.8732 61.4907 18.7017 61.4907H60.8979C61.7264 61.4907 62.3979 60.8191 62.3979 59.9907C62.3979 59.1622 61.7264 58.4907 60.8979 58.4907H59.4867V33.5439C59.702 33.4019 59.9061 33.2435 60.097 33.0699C60.1365 33.0341 60.1754 32.9975 60.2137 32.9603L60.235 32.9396C60.6949 32.4882 61.0608 31.9531 61.3123 31.3645L61.3206 31.345C61.4237 31.1006 61.5063 30.8491 61.5679 30.5929C61.7706 30.4099 61.8979 30.145 61.8979 29.8505V24.6262C61.8979 24.4021 61.8227 24.1845 61.6843 24.0083L57.2637 18.3822C57.0741 18.1409 56.7842 18 56.4774 18H23.926ZM22.5147 58.4907H25.0334V38.6916C25.0334 38.4154 25.2573 38.1916 25.5334 38.1916H34.7764C35.0526 38.1916 35.2764 38.4154 35.2764 38.6916V58.4907H57.4867V34.3172C57.2251 34.3584 56.96 34.3792 56.6939 34.3792C56.0766 34.3792 55.465 34.2672 54.8898 34.0492L54.8545 34.0357L54.8162 34.0206L54.7968 34.0129L54.7774 34.0051C54.1791 33.7618 53.6346 33.407 53.174 32.9603L53.1527 32.9396C52.9177 32.7089 52.7072 32.4564 52.524 32.186L52.5206 32.181C52.3366 32.4532 52.1249 32.7075 51.8884 32.9396L51.8672 32.9603C51.8288 32.9975 51.7899 33.0341 51.7505 33.0699C51.3156 33.4653 50.8123 33.7821 50.2637 34.0051L50.2444 34.0129C49.6423 34.2548 48.998 34.3792 48.3473 34.3792C47.73 34.3792 47.1184 34.2672 46.5433 34.0492C46.5121 34.0374 46.4811 34.0253 46.4502 34.0129L46.4309 34.0051C45.8325 33.7618 45.288 33.407 44.8275 32.9603L44.8062 32.9396C44.5711 32.7089 44.3607 32.4564 44.1775 32.186L44.174 32.1809C43.99 32.4532 43.7783 32.7074 43.5418 32.9396L43.5205 32.9603C43.4822 32.9975 43.4433 33.0341 43.4038 33.0699C42.969 33.4653 42.4657 33.7821 41.9171 34.0051L41.8978 34.0129C41.2957 34.2548 40.6513 34.3792 40.0007 34.3792C39.3834 34.3792 38.7718 34.2672 38.1966 34.0492C38.1655 34.0374 38.1345 34.0253 38.1036 34.0129L38.0842 34.0051C37.4859 33.7618 36.9414 33.407 36.4808 32.9603L36.4596 32.9396C36.2245 32.7089 36.014 32.4564 35.8308 32.186L35.8274 32.1809C35.6433 32.4532 35.4317 32.7074 35.1952 32.9396L35.1739 32.9603C35.1356 32.9975 35.0967 33.0341 35.0572 33.0699C34.6223 33.4653 34.119 33.7821 33.5705 34.0051L33.5511 34.0129C32.9491 34.2548 32.3047 34.3792 31.654 34.3792C31.0368 34.3792 30.4252 34.2672 29.85 34.0492C29.8189 34.0374 29.7879 34.0253 29.757 34.0129L29.7376 34.0051C29.1393 33.7618 28.5947 33.407 28.1342 32.9603L28.1129 32.9396C27.8779 32.7089 27.6674 32.4564 27.4842 32.186L27.481 32.1813C27.297 32.4535 27.0853 32.7077 26.8488 32.9398L26.8276 32.9606C26.7685 33.0179 26.7081 33.0736 26.6463 33.1278C26.2265 33.4964 25.7458 33.7933 25.2242 34.0053L25.2048 34.0131C24.6028 34.255 23.9584 34.3795 23.3077 34.3795C23.0415 34.3795 22.7764 34.3586 22.5147 34.3174V58.4907ZM34.2764 58.4907H26.0334V39.1916H34.2764V58.4907ZM59.9942 30.279C59.9325 30.1491 59.8979 30.0038 59.8979 29.8505V24.972L55.9914 20H24.3859L20.1036 24.9961V29.8505C20.1036 30.0038 20.069 30.1491 20.0074 30.279C20.046 30.4299 20.0955 30.5783 20.1555 30.723L20.1636 30.7425C20.3308 31.1387 20.5741 31.4995 20.8802 31.8052L20.9013 31.8261C21.2124 32.1314 21.5808 32.3746 21.9861 32.5422L22.0054 32.5502C22.4183 32.718 22.8608 32.8044 23.3077 32.8044C23.7546 32.8044 24.1972 32.718 24.61 32.5502L24.6294 32.5422C25.0346 32.3746 25.403 32.1314 25.7141 31.8261L25.7352 31.8052C26.0413 31.4995 26.2846 31.1387 26.4518 30.7425L26.4599 30.723C26.6192 30.334 26.645 29.9186 26.6463 29.4987L26.6461 29.4641V29.4641V29.464C26.6462 29.4573 26.6496 28.6457 27.4808 28.6449C28.3121 28.6441 28.3154 29.4574 28.3154 29.464V29.4641V29.4641V29.4643H28.3156L28.3155 29.4989C28.3168 29.9186 28.3426 30.3338 28.5018 30.7227L28.5099 30.7423C28.6771 31.1384 28.9205 31.4992 29.2265 31.805L29.2477 31.8259C29.5587 32.1312 29.9271 32.3744 30.3324 32.542L30.3517 32.5499C30.6913 32.688 31.051 32.7709 31.4167 32.796C31.4956 32.8015 31.5747 32.8042 31.654 32.8042C32.1009 32.8042 32.5435 32.7178 32.9564 32.5499L32.9757 32.542C33.381 32.3744 33.7493 32.1312 34.0604 31.8259L34.0815 31.805C34.3876 31.4992 34.6309 31.1384 34.7981 30.7423L34.8063 30.7227C34.9075 30.4785 34.9787 30.2239 35.0188 29.9643C35.0015 29.7984 34.9928 29.6315 34.9928 29.4641V29.4641V29.464C34.9928 29.4573 34.9962 28.6457 35.8274 28.6449C36.6587 28.6441 36.6621 29.4574 36.6621 29.464V29.4641V29.4641C36.6621 29.8957 36.6848 30.3231 36.8485 30.7227L36.8566 30.7423C37.0238 31.1384 37.2671 31.4992 37.5732 31.805L37.5943 31.8259C37.9054 32.1312 38.2738 32.3744 38.679 32.542L38.6984 32.5499C39.038 32.688 39.3976 32.7709 39.7633 32.796C39.8422 32.8015 39.9214 32.8042 40.0007 32.8042C40.4476 32.8042 40.8901 32.7178 41.303 32.5499L41.3223 32.542C41.7276 32.3744 42.096 32.1312 42.4071 31.8259L42.4282 31.805C42.7342 31.4992 42.9776 31.1384 43.1448 30.7423L43.1529 30.7227C43.2542 30.4785 43.3254 30.2239 43.3654 29.9643C43.3481 29.7984 43.3394 29.6315 43.3394 29.4641V29.4641V29.464C43.3394 29.4573 43.3428 28.6457 44.1741 28.6449C45.0054 28.6441 45.0087 29.4574 45.0087 29.464V29.4641V29.4641C45.0087 29.8957 45.0315 30.3231 45.1951 30.7227L45.2032 30.7423C45.3704 31.1384 45.6137 31.4992 45.9198 31.805L45.9409 31.8259C46.252 32.1312 46.6204 32.3744 47.0257 32.542L47.045 32.5499C47.3846 32.688 47.7443 32.7709 48.1099 32.796C48.1888 32.8015 48.268 32.8042 48.3473 32.8042C48.7942 32.8042 49.2367 32.7178 49.6496 32.5499L49.6689 32.542C50.0742 32.3744 50.4426 32.1312 50.7537 31.8259L50.7748 31.805C51.0809 31.4992 51.3242 31.1384 51.4914 30.7423L51.4996 30.7227C51.6008 30.4786 51.6719 30.2241 51.712 29.9647C51.6947 29.7987 51.686 29.6316 51.686 29.4641V29.4641V29.464C51.686 29.4573 51.6894 28.6457 52.5206 28.6449C53.3519 28.6441 53.3552 29.4574 53.3553 29.464V29.4641V29.4641C53.3553 29.8957 53.378 30.3231 53.5416 30.7227L53.5498 30.7423C53.717 31.1384 53.9603 31.4992 54.2664 31.805L54.2875 31.8259C54.5986 32.1312 54.9669 32.3744 55.3722 32.542L55.3915 32.5499C55.7312 32.688 56.0908 32.7709 56.4565 32.796C56.5354 32.8015 56.6146 32.8042 56.6939 32.8042C57.1408 32.8042 57.5833 32.7178 57.9962 32.5499L58.0155 32.542C58.4208 32.3744 58.7892 32.1312 59.1002 31.8259L59.1214 31.805C59.4274 31.4992 59.6708 31.1384 59.838 30.7423L59.8461 30.7227C59.9061 30.5781 59.9555 30.4298 59.9942 30.279ZM57.683 26.3318H22.3185V25.3318H57.683C57.9591 25.3318 58.183 25.5556 58.183 25.8318C58.183 26.1079 57.9591 26.3318 57.683 26.3318ZM39.197 38.5935C38.9208 38.5935 38.697 38.8173 38.697 39.0935C38.697 39.1504 38.7065 39.2051 38.724 39.2561C38.7065 39.3071 38.697 39.3618 38.697 39.4188V52.757C38.697 53.0332 38.9208 53.257 39.197 53.257H54.468C54.7442 53.257 54.968 53.0332 54.968 52.757V39.0935C54.968 38.8173 54.7442 38.5935 54.468 38.5935H39.197ZM39.697 52.257V39.5935H53.968V52.257H39.697ZM32.7671 50.3458C33.211 50.3458 33.5708 49.9859 33.5708 49.5421C33.5708 49.0982 33.211 48.7383 32.7671 48.7383C32.3232 48.7383 31.9633 49.0982 31.9633 49.5421C31.9633 49.9859 32.3232 50.3458 32.7671 50.3458Z" fill="#50007F"/>
<path d="M48.8419 40.7009L42.412 47.3318M46.6986 40.7009L42.412 45.1215M44.5553 47.3318L42.412 49.542" stroke="white" stroke-linecap="round" stroke-linejoin="round"/>
</svg>
