<svg fill="none" height="30" viewBox="0 0 111 30" width="111" xmlns="http://www.w3.org/2000/svg"><g fill="#b6bdd3"><path clip-rule="evenodd" d="m15 0c-8.2638 0-15 6.71779-15 15 0 8.2822 6.71779 15 15 15 8.2822 0 15-6.7178 15-15 0-8.28221-6.7178-15-15-15zm-.773 17.4847h-7.47237l7.47237-14.53992zm1.5276-5.0062v14.5399l7.454-14.5399z" fill-rule="evenodd"/><path d="m38.724 24.9019c-.4233-.6626-.8282-1.3252-1.2332-1.951 2.1166-1.2883 2.8344-2.319 2.8344-4.2699v-11.2454h-2.4847v-2.15337h5.3007v12.82817c0 3.2761-.9571 5.0982-4.4172 6.7915z"/><path d="m60.9019 17.227c0 1.0859.773 1.1963 1.2883 1.1963s1.2515-.1656 1.8405-.3497v2.0062c-.8098.2576-1.638.4601-2.7791.4601-1.3804 0-2.9816-.5153-2.9816-2.9264v-5.8896h-1.454v-2.0245h1.454v-3h2.6319v3h3.3129v2.0245h-3.3129z"/><path clip-rule="evenodd" d="m66.4049 9.66261v16.23309h.0184v-.0184h2.6319v-5.6135c.681.1473 1.3436.2577 2.1718.2577 3.4049 0 5.4663-2.3374 5.4663-5.8896 0-3.5889-1.8958-5.24536-4.27-5.24536-1.3804 0-2.5031.47852-3.4969 1.25156v-.97549zm2.6503 3.07359c.9203-.8098 1.8957-1.1779 2.6687-1.1779 1.454 0 2.227 1.0123 2.227 3.2761 0 2.4478-1.0675 3.6257-2.9264 3.6257-.7914 0-1.3987-.092-1.9693-.2024z" fill-rule="evenodd"/><path clip-rule="evenodd" d="m84.5706 20.3006h2.4662.0736v-6.8098c0-3.0552-1.6564-4.08589-4.2331-4.08589-1.3067 0-2.8896.27607-4.0307.68099l.2209 2.1166c1.2515-.5154 2.7975-.7178 3.4601-.7178 1.3436 0 1.9141.4601 1.9141 1.8957v.3129l-2.319.3128c-1.638.2209-3.9571.7362-3.9571 3.4602 0 2.0429 1.4724 3.0368 2.8528 3.0368 1.5828 0 2.6319-.7178 3.4969-1.3804h.0553zm-2.3374-4.6012 2.1717-.3497v2.1718c-.7178.5153-1.546.9754-2.319.9754-.7178 0-1.1963-.4785-1.1963-1.3435 0-.9755.681-1.362 1.3436-1.454z" fill-rule="evenodd"/><path d="m97.8957 19.951c-1.0859.368-2.0613.6073-3.2945.6073-3.957 0-5.5214-2.2638-5.5214-5.5583 0-3.4601 2.1718-5.61346 5.6871-5.61346 1.3251 0 2.1166.22085 3 .51533v2.22703c-.773-.2945-1.8957-.6074-2.9816-.6074-1.6012 0-2.9816.865-2.9816 3.3129 0 2.7239 1.3804 3.5521 3.1104 3.5521.8282 0 1.7485-.1656 2.9816-.6625v2.2085z"/><path d="m102.883 14.2638c.221-.2577.405-.5153 3.718-4.546h3.442l-4.288 5.0245 4.693 5.5767h-3.442l-4.086-5.0245v5.0429h-2.632v-15.01837h2.632v8.96317h-.037z"/><path clip-rule="evenodd" d="m54.3497 19.5573c.0122-.0038.0245-.0075.0368-.0113v.0184h-.0368zm-3.8834.5961c1.368 0 2.5192-.1808 3.8834-.5961v-2.2015c-1.1227.4049-2.0982.6626-3.1841.6626-1.9693 0-3.2944-.5337-3.3496-2.8528h6.8098c.0074-.0893.0156-.1771.024-.2665.0329-.3525.068-.729.068-1.3163 0-2.2454-1.1779-4.5828-4.546-4.5828-3.4049 0-5.1718 2.6319-5.1718 5.5215 0 3.9386 2.0982 5.6319 5.4663 5.6319zm-.3313-9.1657c1.4171 0 1.8404 1.1227 1.8404 2.411h-4.1227c.1657-1.4723.9571-2.411 2.2823-2.411z" fill-rule="evenodd"/></g></svg>