<svg width="64" height="64" viewBox="0 0 64 64" fill="none" xmlns="http://www.w3.org/2000/svg">
<path d="M32.6996 36.7L32.2496 37.7H32.0996V36H32.6996V36.7Z" fill="#BF9DF2"/>
<path d="M32.3504 21.9001H31.6504V45.6001H32.3504V21.9001Z" fill="#330849"/>
<path d="M27.4004 58V56.2C29.4504 56.2 31.1004 54.55 31.1004 52.5V44.7H32.9004V52.45C32.9004 55.5 30.4504 58 27.4004 58Z" fill="#330849"/>
<path d="M7.25 28.1999C10.65 24.7999 16.2 24.7999 19.6 28.1999C23 24.7999 28.55 24.7999 31.95 28.1999C35.35 24.7999 40.9 24.7999 44.3 28.1999C47.7 24.7999 53.25 24.7999 56.65 28.1999C56.65 14.55 45.55 3.44995 31.9 3.44995C18.25 3.44995 7.25 14.55 7.25 28.1999Z" fill="#7A36B9"/>
<path d="M44.3502 28.3501C44.2502 28.3501 44.2002 28.3001 44.2002 28.2001C44.2002 21.6001 42.9502 15.4001 40.6002 10.7501C38.3502 6.1501 35.2502 3.6001 32.0002 3.6001C28.7502 3.6001 25.6502 6.1501 23.3502 10.7501C21.0502 15.4001 19.7502 21.6001 19.7502 28.2001C19.7502 28.3001 19.7002 28.3501 19.6002 28.3501C19.5002 28.3501 19.4502 28.3001 19.4502 28.2001C19.4502 21.5501 20.7502 15.3001 23.0502 10.6501C25.4002 5.9501 28.5502 3.3501 31.9502 3.3501C35.3502 3.3501 38.5002 5.9501 40.8502 10.6501C43.2002 15.3501 44.4502 21.5501 44.4502 28.2001C44.5002 28.3001 44.4502 28.3501 44.3502 28.3501Z" fill="#330849"/>
<path d="M31.9996 28.3501C31.8996 28.3501 31.8496 28.3001 31.8496 28.2001V3.45005C31.8496 3.35005 31.8996 3.30005 31.9996 3.30005C32.0996 3.30005 32.1496 3.35005 32.1496 3.45005V28.2001C32.1496 28.3001 32.0996 28.3501 31.9996 28.3501Z" fill="#330849"/>
<path d="M27.3996 58.0001C26.2496 58.0001 25.1496 57.6501 24.2496 57.0001C23.8496 56.7001 23.7496 56.1501 23.9996 55.7501C24.2996 55.3501 24.8496 55.2501 25.2496 55.5001C25.8496 55.9501 26.5996 56.1501 27.3496 56.1501C27.8496 56.1501 28.2496 56.5501 28.2496 57.0501C28.2496 57.5501 27.8996 58.0001 27.3996 58.0001Z" fill="#330849"/>
<path d="M46.1998 49.8999L31.9998 59.1999L17.7998 49.8999V30.1499H46.1998V49.8999Z" fill="#FE5000"/>
<path d="M31.3496 51.3499L46.1996 33.8999V30.1499L31.3496 51.3499Z" fill="#D73300"/>
<path d="M17.7998 30.1499V33.8999C18.6498 34.2999 19.4498 34.8499 20.1498 35.5499C23.3998 32.2999 28.7498 32.2999 31.9998 35.5499C35.2498 32.2999 40.5998 32.2999 43.8498 35.5499C44.5498 34.8499 45.3498 34.2999 46.1998 33.8999V30.1499H17.7998Z" fill="#D73300"/>
<path d="M31.9996 56.85L19.5996 49V31.95H44.3996V49L31.9996 56.85ZM20.4996 48.5L31.9996 55.8L43.4996 48.5V32.8499H20.4996V48.5Z" fill="#FFF2BA"/>
<path d="M19.5996 31.9499V35.0499C19.7996 35.1999 19.9496 35.3499 20.1496 35.5499C20.2496 35.4499 20.3996 35.2999 20.4996 35.1999V32.8499H43.4996V36.9999L44.3996 36.0499V31.8999H19.5996V31.9499Z" fill="#FFCA47"/>
<path d="M32.3002 3.44995H31.7002L31.8002 2.04995C31.8002 1.99995 31.8502 1.94995 31.9002 1.94995H32.1002C32.1502 1.94995 32.2002 1.99995 32.2002 2.04995L32.3002 3.44995Z" fill="#330849"/>
<path d="M36.9998 61.9999H26.9998C26.7498 61.9999 26.5498 61.7999 26.5498 61.5499C26.5498 61.2999 26.7498 61.0999 26.9998 61.0999H36.9998C37.2498 61.0999 37.4498 61.2999 37.4498 61.5499C37.4498 61.7999 37.2498 61.9999 36.9998 61.9999Z" fill="#E7DBF2"/>
<path d="M22.4502 41.6L31.3502 51.3501L48.3502 28.05L47.8502 27.55L31.3502 44.4501L22.8502 41.2001L22.4502 41.6Z" fill="#F7BE00"/>
<path d="M47.8498 27.55L41.7998 33.7501C42.3998 34.0001 42.9498 34.3501 43.4498 34.8001L48.3498 28.1001L47.8498 27.55Z" fill="#F78E1B"/>
<path d="M24.7504 57.1501C24.5504 57.1501 24.4004 57.1 24.2504 57C22.7504 55.95 21.9004 54.2501 21.9004 52.4501C21.9004 51.9501 22.3004 51.55 22.8004 51.55C23.3004 51.55 23.7004 51.9501 23.7004 52.4501C23.7004 53.6501 24.3004 54.8 25.3004 55.5C25.7004 55.8 25.8004 56.35 25.5504 56.75C25.3004 57.05 25.0504 57.1501 24.7504 57.1501Z" fill="#330849"/>
</svg>
