<svg width="64" height="64" viewBox="0 0 64 64" fill="none" xmlns="http://www.w3.org/2000/svg">
<path d="M39.9504 62H8.65039C8.40039 62 8.15039 61.8 8.15039 61.5C8.15039 61.2 8.35039 61 8.65039 61H39.9504C40.2004 61 40.4504 61.2 40.4504 61.5C40.4504 61.8 40.2004 62 39.9504 62Z" fill="#E7DBF2"/>
<path d="M43.7004 62H42.4004C42.1504 62 41.9004 61.8 41.9004 61.5C41.9004 61.2 42.1004 61 42.4004 61H43.7004C43.9504 61 44.2004 61.2 44.2004 61.5C44.2004 61.8 43.9504 62 43.7004 62Z" fill="#E7DBF2"/>
<path d="M36.0992 51.4001C48.0562 51.4001 57.7492 41.7071 57.7492 29.7501C57.7492 17.7931 48.0562 8.1001 36.0992 8.1001C24.1423 8.1001 14.4492 17.7931 14.4492 29.7501C14.4492 41.7071 24.1423 51.4001 36.0992 51.4001Z" fill="#BF9DF2"/>
<path d="M37.5996 13.5C37.5996 11.7 36.0996 10.2 34.2996 10.2H26.6996C24.5496 11.25 22.5496 12.65 20.7496 14.4C12.2996 22.8499 12.2996 36.5999 20.7496 45.0499C25.3496 49.6499 31.4496 51.7499 37.4496 51.3499C37.5496 51.0499 37.5996 50.6999 37.5996 50.3499V13.5Z" fill="#AE84D4"/>
<path d="M46.5992 41.1501C45.8492 40.7501 45.0992 40.4 44.2992 40.05C41.7492 39 39.0992 38.5001 36.3492 38.4501V29.4H43.5992C43.7492 29.25 43.8492 29.05 43.9992 28.9H36.3492V21C39.0992 20.95 41.7992 20.45 44.2992 19.4C45.0992 19.1 45.8492 18.7 46.5992 18.3V26.35C46.7492 26.25 46.9492 26.1 47.0992 26V18.05C48.6992 17.1 50.1992 15.95 51.5492 14.6C51.4992 14.55 51.4492 14.5 51.3992 14.4C51.3492 14.35 51.2992 14.3 51.1992 14.25C49.9492 15.5 48.5492 16.6 47.0992 17.45V11.05C46.9492 10.95 46.7992 10.85 46.6492 10.8C46.6492 10.85 46.5992 10.85 46.5992 10.9V17.7C43.4992 19.5 39.9992 20.45 36.3492 20.5V8.05005C36.1992 8.05005 35.9992 8.05005 35.8492 8.05005V20.5C32.1992 20.45 28.6992 19.5 25.5992 17.8V10.9C25.5992 10.85 25.5992 10.8 25.5492 10.75C25.3992 10.85 25.2492 10.9 25.0992 11V17.5C23.5992 16.6 22.1992 15.5 20.8992 14.25C20.8492 14.3 20.7992 14.35 20.6992 14.4C20.6492 14.45 20.5992 14.5 20.5492 14.6C21.8992 15.95 23.4492 17.15 25.0992 18.1V28.9501H14.4492C14.4492 29.1001 14.4492 29.3001 14.4492 29.4501H25.1492V41.4001C23.4992 42.3501 21.9992 43.5001 20.5992 44.9001C20.6492 44.9501 20.6992 45 20.7492 45.1C20.7992 45.15 20.8492 45.2 20.9492 45.25C22.1992 44 23.6492 42.9 25.1492 42V48.4501C25.2992 48.5501 25.4492 48.6001 25.5992 48.7001C25.6492 48.6501 25.6492 48.6 25.6492 48.55V41.6501C28.7492 39.9001 32.2492 38.9501 35.8992 38.9501V51.4001C36.0492 51.4001 36.2492 51.4001 36.3992 51.4001V38.9501C40.0492 39.0001 43.5492 39.9501 46.6492 41.7001V48.55C46.6492 48.6 46.6492 48.6501 46.6992 48.6501C46.8492 48.5501 46.9992 48.4501 47.1492 48.4001V42C48.6492 42.9 49.9992 43.9501 51.2492 45.2001C51.2992 45.1501 51.3492 45.1 51.4492 45.05C51.4992 45 51.5492 44.95 51.5992 44.85C50.2492 43.5 48.7492 42.3501 47.1492 41.4001V31.8L46.6492 31.05V41.1501H46.5992ZM25.5992 18.35C26.2992 18.75 27.0492 19.1 27.7992 19.4C30.3492 20.45 33.0492 21 35.8492 21V28.9501H25.5992V18.35ZM27.8492 40.05C27.0992 40.35 26.3492 40.7 25.6492 41.1V29.4H35.8992V38.4501C33.0992 38.5001 30.3992 39 27.8492 40.05Z" fill="#CDB3F5"/>
<path d="M57.7496 28.95H47.5996L47.6996 29.45H57.6996C57.7496 29.25 57.7496 29.1 57.7496 28.95Z" fill="#CDB3F5"/>
<path opacity="0.36" d="M40.9998 31.9L40.7998 32.1L41.4998 32.45L41.3498 32.8L41.4998 32.95L41.8498 32.8L42.1998 33.5L42.3998 33.3L42.4498 32.45C43.1998 32.05 45.0498 30.55 45.7998 29.9L46.5998 31.1V29.5H43.5998C42.8998 30.35 42.1498 31.4 41.8498 31.9H40.9998Z" fill="#9E6CCC"/>
<path opacity="0.36" d="M47.5998 28.9501L47.3998 28.2501C48.1498 27.4001 48.7498 26.4501 49.2498 25.4501C49.2998 25.3001 49.2998 25.1501 49.1998 25.0501C49.0998 24.9501 48.9498 24.9001 48.7998 25.0001C48.1998 25.3001 47.5998 25.6501 47.0498 26.0501V29.0001H47.5998V28.9501Z" fill="#9E6CCC"/>
<path opacity="0.36" d="M41.95 25.8C41.85 25.8 41.75 25.8 41.65 25.9L41.25 26.3L44.4 28.4C44.3 28.55 44.15 28.7 44 28.9H46.6V26.35C46.4 26.5 46.2 26.65 46.05 26.8L41.95 25.8Z" fill="#9E6CCC"/>
<path opacity="0.36" d="M47.0998 31.8L47.8998 33.05L48.2998 32.65C48.3998 32.55 48.3998 32.45 48.3998 32.35L47.6998 29.45H47.0498V31.8H47.0998Z" fill="#9E6CCC"/>
<path d="M47.0996 28.95V26C46.9496 26.1 46.7496 26.25 46.5996 26.35V28.9H43.9996C43.8996 29.05 43.7496 29.2 43.5996 29.4H46.5996V31L47.0996 31.75V29.4H47.7496L47.6496 28.9H47.0996V28.95Z" fill="#CDB3F5"/>
<path opacity="0.36" d="M47.0996 28.95V26C46.9496 26.1 46.7496 26.25 46.5996 26.35V28.9H43.9996C43.8996 29.05 43.7496 29.2 43.5996 29.4H46.5996V31L47.0996 31.75V29.4H47.7496L47.6496 28.9H47.0996V28.95Z" fill="#9F6ECC"/>
<path d="M25.2502 12.2499H15.7002V11.1999C15.7002 10.3499 16.4002 9.6499 17.2502 9.6499H23.7002C24.5502 9.6499 25.2502 10.3499 25.2502 11.1999V12.2499Z" fill="#D63727"/>
<path d="M24.5502 55.7001H16.3502C16.0002 55.7001 15.7002 55.4 15.7002 55.05H25.2502C25.2502 55.4 24.9502 55.7001 24.5502 55.7001Z" fill="#D63727"/>
<path d="M10.7502 54.45H9.7002V55.75H10.7502V54.45Z" fill="#330849"/>
<path d="M12.3002 61.3499C13.7361 61.3499 14.9002 60.1858 14.9002 58.7499C14.9002 57.314 13.7361 56.1499 12.3002 56.1499C10.8643 56.1499 9.7002 57.314 9.7002 58.7499C9.7002 60.1858 10.8643 61.3499 12.3002 61.3499Z" fill="#330849"/>
<path d="M12.3006 59.9501C12.9633 59.9501 13.5006 59.4128 13.5006 58.75C13.5006 58.0873 12.9633 57.55 12.3006 57.55C11.6378 57.55 11.1006 58.0873 11.1006 58.75C11.1006 59.4128 11.6378 59.9501 12.3006 59.9501Z" fill="#AA7FD2"/>
<path d="M9.20031 56.5999L11.8003 59.1999C12.2503 59.6499 12.9503 59.2999 12.9503 58.6999V56.0999C12.9503 55.7499 12.6503 55.3999 12.2503 55.3999H9.65031C9.10031 55.4499 8.80031 56.1999 9.20031 56.5999Z" fill="#E7DBF2"/>
<path d="M30.55 54.45H29.5V55.75H30.55V54.45Z" fill="#330849"/>
<path d="M32.1 61.3499C33.5359 61.3499 34.7 60.1858 34.7 58.7499C34.7 57.314 33.5359 56.1499 32.1 56.1499C30.6641 56.1499 29.5 57.314 29.5 58.7499C29.5 60.1858 30.6641 61.3499 32.1 61.3499Z" fill="#330849"/>
<path d="M32.1004 59.9501C32.7631 59.9501 33.3004 59.4128 33.3004 58.75C33.3004 58.0873 32.7631 57.55 32.1004 57.55C31.4376 57.55 30.9004 58.0873 30.9004 58.75C30.9004 59.4128 31.4376 59.9501 32.1004 59.9501Z" fill="#AA7FD2"/>
<path d="M29 56.5999L31.6 59.1999C32.05 59.6499 32.75 59.2999 32.75 58.6999V56.0999C32.75 55.7499 32.45 55.3999 32.05 55.3999H29.5C28.85 55.4499 28.55 56.1999 29 56.5999Z" fill="#E7DBF2"/>
<path d="M28.3498 16.2H27.3998V3.45H13.5498V16.2H12.5498V2.5H28.3498V16.2Z" fill="#E7DBF2"/>
<path d="M24.9502 2H15.9502V3.95H24.9502V2Z" fill="#330849"/>
<path d="M31.35 55.1499H9.55C7.75 55.1499 6.25 53.6499 6.25 51.8499V14.9499C6.25 13.1499 7.75 11.6499 9.55 11.6499H31.35C33.15 11.6499 34.65 13.1499 34.65 14.9499V51.7999C34.65 53.6499 33.2 55.1499 31.35 55.1499Z" fill="#FE5000"/>
<path d="M11.4 50.9501C11.3 50.9501 11.25 50.9001 11.25 50.8001V16.0001C11.25 15.9001 11.3 15.8501 11.4 15.8501C11.5 15.8501 11.55 15.9001 11.55 16.0001V50.8001C11.6 50.9001 11.5 50.9501 11.4 50.9501Z" fill="#D63927"/>
<path d="M14.4498 50.9501C14.3498 50.9501 14.2998 50.9001 14.2998 50.8001V16.0001C14.2998 15.9001 14.3498 15.8501 14.4498 15.8501C14.5498 15.8501 14.5998 15.9001 14.5998 16.0001V50.8001C14.5998 50.9001 14.4998 50.9501 14.4498 50.9501Z" fill="#D63927"/>
<path d="M17.4498 50.9501C17.3498 50.9501 17.2998 50.9001 17.2998 50.8001V16.0001C17.2998 15.9001 17.3498 15.8501 17.4498 15.8501C17.5498 15.8501 17.5998 15.9001 17.5998 16.0001V50.8001C17.5998 50.9001 17.5498 50.9501 17.4498 50.9501Z" fill="#D63927"/>
<path d="M20.4498 50.9501C20.3498 50.9501 20.2998 50.9001 20.2998 50.8001V16.0001C20.2998 15.9001 20.3498 15.8501 20.4498 15.8501C20.5498 15.8501 20.5998 15.9001 20.5998 16.0001V50.8001C20.5998 50.9001 20.5498 50.9501 20.4498 50.9501Z" fill="#D63927"/>
<path d="M23.4498 50.9501C23.3498 50.9501 23.2998 50.9001 23.2998 50.8001V16.0001C23.2998 15.9001 23.3498 15.8501 23.4498 15.8501C23.5498 15.8501 23.5998 15.9001 23.5998 16.0001V50.8001C23.6498 50.9001 23.5498 50.9501 23.4498 50.9501Z" fill="#D63927"/>
<path d="M26.4996 50.9501C26.3996 50.9501 26.3496 50.9001 26.3496 50.8001V16.0001C26.3496 15.9001 26.3996 15.8501 26.4996 15.8501C26.5996 15.8501 26.6496 15.9001 26.6496 16.0001V50.8001C26.6496 50.9001 26.5496 50.9501 26.4996 50.9501Z" fill="#D63927"/>
<path d="M29.4996 50.9501C29.3996 50.9501 29.3496 50.9001 29.3496 50.8001V16.0001C29.3496 15.9001 29.3996 15.8501 29.4996 15.8501C29.5996 15.8501 29.6496 15.9001 29.6496 16.0001V50.8001C29.6496 50.9001 29.5996 50.9501 29.4996 50.9501Z" fill="#D63927"/>
<path d="M53.55 12.3001C51.7 13.2501 49.9 14.4501 48.3 15.8501L40.5 13.9001C40.35 13.8501 40.1 13.9501 39.95 14.1001L39.15 14.9001L45.1 18.9001C43.9 20.3001 41.05 23.9001 40.25 25.2501L38.65 25.4001L38.25 25.8001L39.6 26.4501L39.3 27.1001L39.55 27.3501L40.2 27.0501L40.85 28.4001L41.25 28.0001L41.4 26.4001C42.75 25.6501 46.35 22.7501 47.75 21.5501L51.75 27.5001L52.55 26.7001C52.7 26.5501 52.8 26.3501 52.75 26.1501L50.85 18.4001C52.25 16.7501 53.45 15.0001 54.4 13.1501C54.55 12.9001 54.5 12.6001 54.3 12.4001C54.1 12.2001 53.8 12.1501 53.55 12.3001Z" fill="#330849"/>
</svg>
