<svg width="64" height="64" viewBox="0 0 64 64" fill="none" xmlns="http://www.w3.org/2000/svg">
<path d="M52.9508 62.0001H10.7508C10.5008 62.0001 10.3008 61.8001 10.3008 61.5501C10.3008 61.3001 10.5008 61.1001 10.7508 61.1001H52.9508C53.2008 61.1001 53.4008 61.3001 53.4008 61.5501C53.4008 61.8001 53.2008 62.0001 52.9508 62.0001Z" fill="#E7DBF2"/>
<path d="M44.4008 61.15H19.3008C16.8008 61.15 14.8008 59.15 14.8008 56.65V6.5C14.8008 4 16.8008 2 19.3008 2H44.3508C46.8508 2 48.8508 4 48.8508 6.5V56.65C48.9008 59.15 46.8508 61.15 44.4008 61.15Z" fill="#7A36B9"/>
<path d="M48.2002 7.44995H15.4502V55.65H48.2002V7.44995Z" fill="#BF9DF2"/>
<path d="M43.2504 38.7001H20.7504C20.0004 38.7001 19.4004 38.1001 19.4004 37.3501V16.2001C19.4004 15.4501 20.0004 14.8501 20.7504 14.8501H43.3004C44.0504 14.8501 44.6504 15.4501 44.6504 16.2001V37.3501C44.6504 38.1001 44.0504 38.7001 43.2504 38.7001Z" fill="#AF86D5"/>
<path d="M48.2002 15.3999H15.4502V36.5499H48.2002V15.3999Z" fill="#AF86D5"/>
<path d="M33.4002 5.24995H28.3502C28.2502 5.24995 28.2002 5.19995 28.2002 5.09995C28.2002 4.99995 28.2502 4.94995 28.3502 4.94995H33.4002C33.5002 4.94995 33.5502 4.99995 33.5502 5.09995C33.5502 5.19995 33.5002 5.24995 33.4002 5.24995Z" fill="#330849"/>
<path d="M34.8 5.35C34.9657 5.35 35.1 5.21569 35.1 5.05C35.1 4.88431 34.9657 4.75 34.8 4.75C34.6343 4.75 34.5 4.88431 34.5 5.05C34.5 5.21569 34.6343 5.35 34.8 5.35Z" fill="#330849"/>
<path d="M24.4504 35.6499H5.10039C4.45039 35.6499 3.90039 35.0999 3.90039 34.4499V16.3499C3.90039 15.6999 4.45039 15.1499 5.10039 15.1499H24.4504C25.1004 15.1499 25.6504 15.6999 25.6504 16.3499V34.4999C25.6504 35.1499 25.1004 35.6499 24.4504 35.6499Z" fill="#E7DBF2"/>
<path d="M24.45 15.1499H18V35.6499H24.45C25.1 35.6499 25.65 35.0999 25.65 34.4499V16.3499C25.65 15.6999 25.1 15.1499 24.45 15.1499Z" fill="#D9C4F7"/>
<path d="M17.8502 17.8997L13.9502 18.2497L15.8002 33.6497L20.4502 33.2497L18.7002 18.5497C18.6502 18.1497 18.3002 17.8497 17.8502 17.8997Z" fill="#FE5000"/>
<path d="M18.7002 18.5499C18.6502 18.1499 18.3502 17.8999 17.9502 17.8499V33.3999L20.4502 33.1999L18.7002 18.5499Z" fill="#D63727"/>
<path d="M11.7006 17.8997L15.6006 18.2497L13.7506 33.6497L9.10059 33.2497L10.8506 18.5497C10.9006 18.1497 11.2506 17.8497 11.7006 17.8997Z" fill="#FE5000"/>
<path d="M17.451 16.9497H12.151C11.951 16.9497 11.751 17.0997 11.751 17.3497V18.6497H17.801V17.3497C17.801 17.0997 17.651 16.9497 17.451 16.9497Z" fill="#FE5000"/>
<path d="M17.401 20.0498C17.301 20.0498 17.251 19.9998 17.251 19.8998V18.7498H13.151C13.051 18.7498 13.001 18.6998 13.001 18.5998V16.9498C13.001 16.8498 13.051 16.7998 13.151 16.7998C13.251 16.7998 13.301 16.8498 13.301 16.9498V18.4498H17.401C17.501 18.4498 17.551 18.4998 17.551 18.5998V19.8998C17.551 19.9998 17.451 20.0498 17.401 20.0498Z" fill="#D63727"/>
<path d="M13.9512 17.9497C14.0892 17.9497 14.2012 17.8378 14.2012 17.6997C14.2012 17.5616 14.0892 17.4497 13.9512 17.4497C13.8131 17.4497 13.7012 17.5616 13.7012 17.6997C13.7012 17.8378 13.8131 17.9497 13.9512 17.9497Z" fill="#D73300"/>
<path d="M12.0006 25.5998C11.9506 25.5998 11.8506 25.5498 11.8506 25.4998C11.8506 25.3998 11.9006 25.3498 11.9506 25.3498L17.5006 24.4998C17.6006 24.4998 17.6506 24.5498 17.6506 24.5998C17.6506 24.6998 17.6006 24.7498 17.5506 24.7498L12.0006 25.5998Z" fill="#D63727"/>
<path d="M16.7508 24.8498H12.7008C12.6008 24.8498 12.5508 24.7998 12.5508 24.6998C12.5508 24.5998 12.6008 24.5498 12.7008 24.5498H16.7508C16.8508 24.5498 16.9008 24.5998 16.9008 24.6998C16.9008 24.7998 16.8008 24.8498 16.7508 24.8498Z" fill="#D63727"/>
<path d="M15.251 30.9997L15.601 33.7497C15.601 33.8497 15.701 33.9497 15.801 33.8997L20.551 33.4997C20.651 33.4997 20.751 33.3997 20.751 33.2997L20.351 30.4997C20.351 30.3997 20.251 30.2997 20.151 30.3497L15.401 30.7497C15.301 30.7497 15.251 30.8497 15.251 30.9997Z" fill="#FFB600"/>
<path d="M20.701 33.2497L20.351 30.4997C20.351 30.3997 20.251 30.2997 20.151 30.3497L18.001 30.5497V33.6997L20.551 33.4997C20.651 33.4497 20.701 33.3497 20.701 33.2497Z" fill="#F78E1B"/>
<path d="M14.3008 30.9998L13.9508 33.7498C13.9508 33.8498 13.8508 33.9498 13.7508 33.8998L9.00078 33.4998C8.90078 33.4998 8.80078 33.3998 8.80078 33.2998L9.15078 30.5498C9.15078 30.4498 9.25078 30.3498 9.35078 30.3998L14.1008 30.7998C14.2508 30.7498 14.3008 30.8498 14.3008 30.9998Z" fill="#FFB600"/>
<path d="M9.30098 33.5498C9.30098 33.5498 9.25098 33.5498 9.30098 33.5498C9.25098 33.5498 9.25098 33.4998 9.25098 33.4998L9.65098 30.3498C9.65098 30.2998 9.70098 30.2998 9.70098 30.2998C9.75098 30.2998 9.75098 30.3498 9.75098 30.3498L9.35098 33.4998L9.30098 33.5498Z" fill="#FE5000"/>
<path d="M20.2508 33.5498C20.2008 33.5498 20.2008 33.5498 20.2008 33.4998L19.8008 30.3498C19.8008 30.2998 19.8008 30.2998 19.8508 30.2998C19.9008 30.2998 19.9008 30.2998 19.9008 30.3498L20.3008 33.4998C20.3008 33.4998 20.3008 33.5498 20.2508 33.5498Z" fill="#0D4CA6"/>
<path d="M39.5506 15.1499H58.9006C59.5506 15.1499 60.1006 15.6999 60.1006 16.3499V34.4999C60.1006 35.1499 59.5506 35.6999 58.9006 35.6999H39.5506C38.9006 35.6999 38.3506 35.1499 38.3506 34.4999V16.3499C38.3506 15.6999 38.9006 15.1499 39.5506 15.1499Z" fill="#E7DBF2"/>
<path d="M39.5506 15.1499C38.9006 15.1499 38.3506 15.6999 38.3506 16.3499V34.4999C38.3506 35.1499 38.9006 35.6999 39.5506 35.6999H46.0006V15.1999H39.5506V15.1499Z" fill="#D9C4F7"/>
<path d="M48.9 27.2998C48.8 27.2998 48.75 27.2498 48.75 27.1498V26.1998C48.75 26.0998 48.8 26.0498 48.9 26.0498C49 26.0498 49.05 26.0998 49.05 26.1998V27.1498C49 27.1998 48.95 27.2998 48.9 27.2998Z" fill="#FFB600"/>
<path d="M48.3004 27.2998C48.2004 27.2998 48.1504 27.2498 48.1504 27.1498V26.1998C48.1504 26.0998 48.2004 26.0498 48.3004 26.0498C48.4004 26.0498 48.4504 26.0998 48.4504 26.1998V27.1498C48.4504 27.1998 48.4004 27.2998 48.3004 27.2998Z" fill="#FFB600"/>
<path d="M47.7496 27.2998C47.6496 27.2998 47.5996 27.2498 47.5996 27.1498V26.1998C47.5996 26.0998 47.6496 26.0498 47.7496 26.0498C47.8496 26.0498 47.8996 26.0998 47.8996 26.1998V27.1498C47.8996 27.1998 47.7996 27.2998 47.7496 27.2998Z" fill="#FFB600"/>
<path d="M47.15 27.2998C47.05 27.2998 47 27.2498 47 27.1498V26.1998C47 26.0998 47.05 26.0498 47.15 26.0498C47.25 26.0498 47.3 26.0998 47.3 26.1998V27.1498C47.3 27.1998 47.25 27.2998 47.15 27.2998Z" fill="#FFB600"/>
<path d="M46.6002 27.2998C46.5002 27.2998 46.4502 27.2498 46.4502 27.1498V26.1998C46.4502 26.0998 46.5002 26.0498 46.6002 26.0498C46.7002 26.0498 46.7502 26.0998 46.7502 26.1998V27.1498C46.7502 27.1998 46.7002 27.2998 46.6002 27.2998Z" fill="#FFB600"/>
<path d="M45.4498 27.2998C45.3498 27.2998 45.2998 27.2498 45.2998 27.1498V26.1998C45.2998 26.0998 45.3498 26.0498 45.4498 26.0498C45.5498 26.0498 45.5998 26.0998 45.5998 26.1998V27.1498C45.5998 27.1998 45.5498 27.2998 45.4498 27.2998Z" fill="#F78E1B"/>
<path d="M44.9 27.2998C44.8 27.2998 44.75 27.2498 44.75 27.1498V26.1998C44.75 26.0998 44.8 26.0498 44.9 26.0498C45 26.0498 45.05 26.0998 45.05 26.1998V27.1498C45.05 27.1998 44.95 27.2998 44.9 27.2998Z" fill="#FFB600"/>
<path d="M45.9004 26.1998V27.1498C45.9004 27.2498 45.9504 27.2998 46.0504 27.2998V26.0498C45.9504 26.0498 45.9004 26.0998 45.9004 26.1998Z" fill="#F78E1B"/>
<path d="M46.0508 26.0498V27.2998C46.1508 27.2998 46.2008 27.2498 46.2008 27.1498V26.1998C46.2008 26.0998 46.1008 26.0498 46.0508 26.0498Z" fill="#FFB600"/>
<path d="M49.6502 19.8499H45.6502C45.1502 19.8499 44.7002 20.2499 44.7002 20.7999V26.1999C44.7002 26.2999 44.7502 26.3499 44.8502 26.3499H48.8502C48.9502 26.3499 49.0002 26.2999 49.0002 26.1999V20.7999C49.0002 20.4499 49.3002 20.1499 49.6502 20.1499C49.7502 20.1499 49.8002 20.0999 49.8002 19.9999C49.8002 19.9499 49.7502 19.8499 49.6502 19.8499Z" fill="#FFB600"/>
<path d="M46.3504 24.7H46.1504V25.9H46.3504V24.7Z" fill="#FFF2BA"/>
<path d="M46.3504 21.7498H46.1504V22.9498H46.3504V21.7498Z" fill="#FFF2BA"/>
<path d="M45.6502 19.8499C45.1502 19.8499 44.7002 20.2499 44.7002 20.7999V26.1999C44.7002 26.2999 44.7502 26.3499 44.8502 26.3499H46.0002V19.8499H45.6502Z" fill="#F78E1B"/>
<path d="M48.7504 24.7H48.6504V25.9H48.7504V24.7Z" fill="#FFF2BA"/>
<path d="M48.4998 25.9H48.2998V24.7H48.4998V25.9ZM48.1498 25.9H47.9498V24.7H48.1498V25.9ZM47.7498 25.9H47.5498V24.7H47.7498V25.9ZM47.3998 25.9H47.1998V24.7H47.3998V25.9ZM47.0498 25.9H46.8498V24.7H47.0498V25.9ZM46.6998 25.9H46.4998V24.7H46.6998V25.9ZM45.9498 25.9H45.7498V24.7H45.9498V25.9ZM45.5998 25.9H45.3998V24.7H45.5998V25.9ZM45.2498 25.9H45.0498V24.7H45.2498V25.9Z" fill="#FFB600"/>
<path d="M44.85 24.7H44.75V25.9H44.85V24.7Z" fill="#FFF2BA"/>
<path d="M48.7504 21.75H48.6504V22.95H48.7504V21.75Z" fill="#FFF2BA"/>
<path d="M48.4998 22.9H48.2998V21.7H48.4998V22.9ZM48.1498 22.9H47.9498V21.7H48.1498V22.9ZM47.7498 22.9H47.5498V21.7H47.7498V22.9ZM47.3998 22.9H47.1998V21.7H47.3998V22.9ZM47.0498 22.9H46.8498V21.7H47.0498V22.9ZM46.6998 22.9H46.4998V21.7H46.6998V22.9ZM45.9498 22.9H45.7498V21.7H45.9498V22.9ZM45.5998 22.9H45.3998V21.7H45.5998V22.9ZM45.2498 22.9H45.0498V21.7H45.2498V22.9Z" fill="#FFB600"/>
<path d="M44.85 21.75H44.75V22.95H44.85V21.75Z" fill="#FFF2BA"/>
<path d="M51.2002 30.6499C50.8502 30.6499 50.5502 30.3499 50.5502 29.9999V20.7999C50.5502 20.2999 50.1502 19.8499 49.6002 19.8499H45.6002C45.5002 19.8499 45.4502 19.8999 45.4502 19.9999C45.4502 20.0999 45.5002 20.1499 45.6002 20.1499C45.9502 20.1499 46.2502 20.4499 46.2502 20.7999V29.9999C46.2502 30.4999 46.6502 30.9499 47.2002 30.9499H51.2002C51.3002 30.9499 51.3502 30.8999 51.3502 30.7999C51.3502 30.6999 51.3002 30.6499 51.2002 30.6499Z" fill="#F78E1B"/>
<path d="M50.4506 27.7H50.3506V28.9H50.4506V27.7Z" fill="#FFB600"/>
<path d="M50.1502 28.9H50.0002V27.7H50.2002V28.9H50.1502ZM49.8002 28.9H49.6002V27.7H49.8002V28.9ZM49.4502 28.9H49.2502V27.7H49.4502V28.9ZM49.1002 28.9H48.9002V27.7H49.1002V28.9ZM48.7002 28.9H48.5002V27.7H48.7002V28.9ZM48.3502 28.9H48.1502V27.7H48.3502V28.9ZM48.0002 28.9H47.8002V27.7H48.0002V28.9ZM47.6502 28.9H47.4502V27.7H47.6502V28.9ZM47.2502 28.9H47.0502V27.7H47.2502V28.9ZM46.9002 28.9H46.7002V27.7H46.9002V28.9Z" fill="#FFB600"/>
<path d="M46.5502 27.7H46.4502V28.9H46.5502V27.7Z" fill="#FFB600"/>
<path d="M50.4506 24.25H50.3506V25.45H50.4506V24.25Z" fill="#FFB600"/>
<path d="M50.1502 25.4H50.0002V24.2H50.2002V25.4H50.1502ZM49.8002 25.4H49.6002V24.2H49.8002V25.4ZM49.4502 25.4H49.2502V24.2H49.4502V25.4ZM49.1002 25.4H48.9002V24.2H49.1002V25.4ZM48.7002 25.4H48.5002V24.2H48.7002V25.4ZM48.3502 25.4H48.1502V24.2H48.3502V25.4ZM48.0002 25.4H47.8002V24.2H48.0002V25.4ZM47.6502 25.4H47.4502V24.2H47.6502V25.4ZM47.2502 25.4H47.0502V24.2H47.2502V25.4ZM46.9002 25.4H46.7002V24.2H46.9002V25.4Z" fill="#FFB600"/>
<path d="M46.5502 24.25H46.4502V25.45H46.5502V24.25Z" fill="#FFB600"/>
<path d="M50.4506 20.7498H50.3506V21.9498H50.4506V20.7498Z" fill="#FFB600"/>
<path d="M50.1502 21.9498H50.0002V20.7498H50.2002V21.9498H50.1502ZM49.8002 21.9498H49.6002V20.7498H49.8002V21.9498ZM49.4502 21.9498H49.2502V20.7498H49.4502V21.9498ZM49.1002 21.9498H48.9002V20.7498H49.1002V21.9498ZM48.7002 21.9498H48.5002V20.7498H48.7002V21.9498ZM48.3502 21.9498H48.1502V20.7498H48.3502V21.9498ZM48.0002 21.9498H47.8002V20.7498H48.0002V21.9498ZM47.6502 21.9498H47.4502V20.7498H47.6502V21.9498ZM47.2502 21.9498H47.0502V20.7498H47.2502V21.9498ZM46.9002 21.9498H46.7002V20.7498H46.9002V21.9498Z" fill="#FFB600"/>
<path d="M46.5502 20.7498H46.4502V21.9498H46.5502V20.7498Z" fill="#FFB600"/>
<path d="M52.7998 22.6499H48.7998C48.2998 22.6499 47.8498 23.0499 47.8498 23.5999V29.9999C47.8498 30.3499 47.5498 30.6499 47.1998 30.6499C47.0998 30.6499 47.0498 30.6999 47.0498 30.7999C47.0498 30.8999 47.0998 30.9499 47.1998 30.9499H51.1998C51.6998 30.9499 52.1498 30.5499 52.1498 29.9999V23.5999C52.1498 23.2499 52.4498 22.9499 52.7998 22.9499C52.8998 22.9499 52.9498 22.8999 52.9498 22.7999C52.9498 22.6999 52.8498 22.6499 52.7998 22.6499Z" fill="#FFB600"/>
<path d="M52.0004 28.8999H51.9004V30.0999H52.0004V28.8999Z" fill="#FFF2BA"/>
<path d="M51.75 30.0499H51.55V28.8499H51.75V30.0499ZM51.35 30.0499H51.15V28.8499H51.35V30.0499ZM51 30.0499H50.8V28.8499H51V30.0499ZM50.65 30.0499H50.45V28.8499H50.65V30.0499ZM50.3 30.0499H50.1V28.8499H50.3V30.0499ZM49.9 30.0499H49.7V28.8499H49.9V30.0499ZM49.55 30.0499H49.35V28.8499H49.55V30.0499ZM49.2 30.0499H49V28.8499H49.2V30.0499ZM48.85 30.0499H48.65V28.8499H48.85V30.0499ZM48.45 30.0499H48.25V28.8499H48.45V30.0499Z" fill="#FFF2BA"/>
<path d="M48.1 28.8999H48V30.0999H48.1V28.8999Z" fill="#FFF2BA"/>
<path d="M52.0004 25.8499H51.9004V27.0499H52.0004V25.8499Z" fill="#FFF2BA"/>
<path d="M51.75 26.9998H51.55V25.7998H51.75V26.9998ZM51.35 26.9998H51.15V25.7998H51.35V26.9998ZM51 26.9998H50.8V25.7998H51V26.9998ZM50.65 26.9998H50.45V25.7998H50.65V26.9998ZM50.3 26.9998H50.1V25.7998H50.3V26.9998ZM49.9 26.9998H49.7V25.7998H49.9V26.9998ZM49.55 26.9998H49.35V25.7998H49.55V26.9998ZM49.2 26.9998H49V25.7998H49.2V26.9998ZM48.85 26.9998H48.65V25.7998H48.85V26.9998ZM48.45 26.9998H48.25V25.7998H48.45V26.9998Z" fill="#FFF2BA"/>
<path d="M48.1 25.8499H48V27.0499H48.1V25.8499Z" fill="#FFF2BA"/>
<path d="M52.8004 22.6499H48.8004C48.7004 22.6499 48.6504 22.6999 48.6504 22.7999C48.6504 22.8999 48.7004 22.9499 48.8004 22.9499C49.1504 22.9499 49.4504 23.2499 49.4504 23.5999V27.4999C49.4504 27.5999 49.5004 27.6499 49.6004 27.6499H53.6004C53.7004 27.6499 53.7504 27.5999 53.7504 27.4999V23.5499C53.7004 23.0499 53.3004 22.6499 52.8004 22.6499Z" fill="#F78E1B"/>
<path d="M53.601 24.75H53.501V25.95H53.601V24.75Z" fill="#FFB600"/>
<path d="M53.3006 25.9H53.1006V24.7H53.3006V25.9ZM52.9506 25.9H52.7506V24.7H52.9506V25.9ZM52.5506 25.9H52.3506V24.7H52.5506V25.9ZM52.2006 25.9H52.0006V24.7H52.2006V25.9ZM51.8506 25.9H51.6506V24.7H51.8506V25.9ZM51.5006 25.9H51.3006V24.7H51.5006V25.9ZM51.1006 25.9H50.9006V24.7H51.1006V25.9ZM50.7506 25.9H50.5506V24.7H50.7506V25.9ZM50.4006 25.9H50.2006V24.7H50.4006V25.9ZM50.0506 25.9H49.8506V24.7H50.0506V25.9Z" fill="#FFB600"/>
<path d="M49.7006 24.75H49.6006V25.95H49.7006V24.75Z" fill="#FFB600"/>
<path d="M53.5504 28.5999C53.4504 28.5999 53.4004 28.5499 53.4004 28.4499V27.4999C53.4004 27.3999 53.4504 27.3499 53.5504 27.3499C53.6504 27.3499 53.7004 27.3999 53.7004 27.4999V28.4499C53.7004 28.5499 53.6504 28.5999 53.5504 28.5999Z" fill="#F78E1B"/>
<path d="M53.0006 28.5999C52.9006 28.5999 52.8506 28.5499 52.8506 28.4499V27.4999C52.8506 27.3999 52.9006 27.3499 53.0006 27.3499C53.1006 27.3499 53.1506 27.3999 53.1506 27.4999V28.4499C53.1506 28.5499 53.1006 28.5999 53.0006 28.5999Z" fill="#F78E1B"/>
<path d="M52.4498 28.5999C52.3498 28.5999 52.2998 28.5499 52.2998 28.4499V27.4999C52.2998 27.3999 52.3498 27.3499 52.4498 27.3499C52.5498 27.3499 52.5998 27.3999 52.5998 27.4999V28.4499C52.5498 28.5499 52.4998 28.5999 52.4498 28.5999Z" fill="#F78E1B"/>
<path d="M51.8502 28.5999C51.7502 28.5999 51.7002 28.5499 51.7002 28.4499V27.4999C51.7002 27.3999 51.7502 27.3499 51.8502 27.3499C51.9502 27.3499 52.0002 27.3999 52.0002 27.4999V28.4499C52.0002 28.5499 51.9502 28.5999 51.8502 28.5999Z" fill="#F78E1B"/>
<path d="M51.3004 28.5999C51.2004 28.5999 51.1504 28.5499 51.1504 28.4499V27.4999C51.1504 27.3999 51.2004 27.3499 51.3004 27.3499C51.4004 27.3499 51.4504 27.3999 51.4504 27.4999V28.4499C51.4504 28.5499 51.3504 28.5999 51.3004 28.5999Z" fill="#F78E1B"/>
<path d="M50.6998 28.5999C50.5998 28.5999 50.5498 28.5499 50.5498 28.4499V27.4999C50.5498 27.3999 50.5998 27.3499 50.6998 27.3499C50.7998 27.3499 50.8498 27.3999 50.8498 27.4999V28.4499C50.8498 28.5499 50.7998 28.5999 50.6998 28.5999Z" fill="#F78E1B"/>
<path d="M50.15 28.5999C50.05 28.5999 50 28.5499 50 28.4499V27.4999C50 27.3999 50.05 27.3499 50.15 27.3499C50.25 27.3499 50.3 27.3999 50.3 27.4999V28.4499C50.3 28.5499 50.25 28.5999 50.15 28.5999Z" fill="#F78E1B"/>
<path d="M49.6002 28.5999C49.5002 28.5999 49.4502 28.5499 49.4502 28.4499V27.4999C49.4502 27.3999 49.5002 27.3499 49.6002 27.3499C49.7002 27.3499 49.7502 27.3999 49.7502 27.4999V28.4499C49.7502 28.5499 49.6502 28.5999 49.6002 28.5999Z" fill="#F78E1B"/>
<path d="M28.4008 42.25C28.9008 42.25 29.3008 42.65 29.3008 43.15V44.9C29.3008 45.4 28.9008 45.7999 28.4008 45.7999H19.5008C19.0008 45.7999 18.6008 45.4 18.6008 44.9V43.15C18.6008 42.65 19.0008 42.25 19.5008 42.25H28.4008ZM28.4008 41.95H19.5008C18.8508 41.95 18.3008 42.5 18.3008 43.15V44.9C18.3008 45.55 18.8508 46.0999 19.5008 46.0999H28.4008C29.0508 46.0999 29.6008 45.55 29.6008 44.9V43.15C29.6008 42.5 29.0508 41.95 28.4008 41.95Z" fill="#E7DBF2"/>
<path d="M44.2006 42.25C44.7006 42.25 45.1006 42.65 45.1006 43.15V44.9C45.1006 45.4 44.7006 45.7999 44.2006 45.7999H35.3006C34.8006 45.7999 34.4006 45.4 34.4006 44.9V43.15C34.4006 42.65 34.8006 42.25 35.3006 42.25H44.2006ZM44.2006 41.95H35.3006C34.6506 41.95 34.1006 42.5 34.1006 43.15V44.9C34.1006 45.55 34.6506 46.0999 35.3006 46.0999H44.2006C44.8506 46.0999 45.4006 45.55 45.4006 44.9V43.15C45.4006 42.5 44.8506 41.95 44.2006 41.95Z" fill="#E7DBF2"/>
<path d="M38.6506 52.9501H25.0506C24.4006 52.9501 23.8506 52.4 23.8506 51.75V50C23.8506 49.35 24.4006 48.8 25.0506 48.8H38.6006C39.2506 48.8 39.8006 49.35 39.8006 50V51.75C39.8506 52.4 39.3006 52.9501 38.6506 52.9501Z" fill="#E7DBF2"/>
<path d="M43.6 37.7001H20.4C19.6 37.7001 19 37.0501 19 36.3001V14.5001C19 13.7001 19.65 13.1001 20.4 13.1001H43.65C44.45 13.1001 45.05 13.7501 45.05 14.5001V36.3001C45.05 37.1001 44.4 37.7001 43.6 37.7001Z" fill="white"/>
<path d="M39.9006 16.3C40.4805 16.3 40.9506 15.8299 40.9506 15.25C40.9506 14.6701 40.4805 14.2 39.9006 14.2C39.3207 14.2 38.8506 14.6701 38.8506 15.25C38.8506 15.8299 39.3207 16.3 39.9006 16.3Z" fill="#E7DBF2"/>
<path d="M42.9006 16.3C43.4805 16.3 43.9506 15.8299 43.9506 15.25C43.9506 14.6701 43.4805 14.2 42.9006 14.2C42.3207 14.2 41.8506 14.6701 41.8506 15.25C41.8506 15.8299 42.3207 16.3 42.9006 16.3Z" fill="#E7DBF2"/>
<path d="M57.9504 18.0499C58.3922 18.0499 58.7504 17.6918 58.7504 17.25C58.7504 16.8081 58.3922 16.45 57.9504 16.45C57.5086 16.45 57.1504 16.8081 57.1504 17.25C57.1504 17.6918 57.5086 18.0499 57.9504 18.0499Z" fill="white"/>
<path d="M34.2008 59.0999H29.5008C28.9508 59.0999 28.5508 58.65 28.5508 58.15C28.5508 57.65 29.0008 57.2 29.5008 57.2H34.2008C34.7508 57.2 35.1508 57.65 35.1508 58.15C35.1508 58.65 34.7508 59.0999 34.2008 59.0999ZM29.5008 57.45C29.1508 57.45 28.8508 57.7499 28.8508 58.0999C28.8508 58.4499 29.1508 58.75 29.5008 58.75H34.2008C34.5508 58.75 34.8508 58.4499 34.8508 58.0999C34.8508 57.7499 34.5508 57.45 34.2008 57.45H29.5008Z" fill="#330849"/>
<path d="M37.3 36.3499H26.7C26.45 36.3499 26.25 36.1499 26.25 35.8999V34.8999H37.65V35.8999C37.7 36.1999 37.5 36.3499 37.3 36.3499Z" fill="#F78E1B"/>
<path d="M26.2998 35.9499V34.8999H37.6998V35.9499" fill="#FE5000"/>
<path d="M24.3505 33.5999L22.7005 33.1499C22.4505 33.0999 22.3005 32.8499 22.4005 32.5999L22.9505 30.6499L25.4505 31.3499L24.9005 33.2999C24.8505 33.4999 24.5505 33.6499 24.3505 33.5999Z" fill="#F78E1B"/>
<path d="M22.4004 32.5499L22.9504 30.5999L25.4504 31.2999L24.9004 33.2499" fill="#FE5000"/>
<path d="M39.6498 33.5999L41.2998 33.1499C41.5498 33.0999 41.6998 32.8499 41.5998 32.5999L41.0498 30.6499L38.5498 31.3499L39.0998 33.2999C39.1498 33.4999 39.4498 33.6499 39.6498 33.5999Z" fill="#F78E1B"/>
<path d="M41.5998 32.5499L41.0498 30.5999L38.5498 31.2999L39.0998 33.2499" fill="#FE5000"/>
<path d="M35.7002 25.6L38.4002 32.3C38.5002 32.5 38.7002 32.65 38.9502 32.55L41.4502 31.85C41.6502 31.8 41.8002 31.6 41.8002 31.35C40.8502 22.55 35.8502 16.5 35.8502 16.5H28.1502C28.1502 16.5 23.1502 22.6 22.2002 31.4C22.2002 31.6 22.3002 31.85 22.5502 31.9L25.0502 32.6C25.2502 32.65 25.5002 32.55 25.6002 32.35L28.3002 25.65" fill="#F78E1B"/>
<path d="M36.6504 18.75C36.6504 18.75 38.1004 24.4 38.1504 35C38.1504 35.25 37.9504 35.45 37.7004 35.45H26.3504C26.1004 35.45 25.9004 35.25 25.9004 35C25.9504 24.4 27.4004 18.75 27.4004 18.75" fill="#F78E1B"/>
<path d="M25.9498 32.05C25.8498 32.05 25.7998 32 25.7998 31.9C25.9498 26.75 26.4498 23 26.7998 20.8C26.7998 20.7 26.8998 20.65 26.9498 20.7C27.0498 20.7 27.0998 20.8 27.0498 20.85C26.6998 23.05 26.1998 26.75 26.0498 31.9C26.0998 32 25.9998 32.05 25.9498 32.05Z" fill="#FE5000"/>
<path d="M38.0504 32.0499C37.9504 32.0499 37.9004 31.9999 37.9004 31.8999C37.7504 26.8499 37.3004 23.1999 36.9004 20.9999C36.9004 20.8999 36.9504 20.8499 37.0004 20.8499C37.1004 20.8499 37.1504 20.8999 37.1504 20.9499C37.5004 23.1499 38.0004 26.7999 38.1504 31.8999C38.2004 31.9999 38.1504 32.0499 38.0504 32.0499Z" fill="#FE5000"/>
<path d="M35.3003 15.2L35.2003 15.1C34.6503 14.65 33.9503 14.45 33.2503 14.45H30.7503C30.0503 14.45 29.3503 14.7 28.8003 15.1L28.7003 15.2C28.2003 15 27.6503 15.1 27.3003 15.45L26.5003 16.25C26.0503 16.7 26.0003 17.45 26.4503 17.95L26.8503 18.4L27.2503 17.9C27.6503 17.35 28.4003 17.2 29.0003 17.55L32.0503 19.2L35.1003 17.55C35.7003 17.25 36.4503 17.4 36.8503 17.9L37.2503 18.4L37.6503 17.95C38.1003 17.45 38.0503 16.7 37.6003 16.25L36.8003 15.45C36.3503 15.1 35.8003 15 35.3003 15.2Z" fill="#F78E1B"/>
<path d="M32.8006 18.9499C32.7506 18.9499 32.7006 18.8999 32.6506 18.8499C32.6006 18.7999 32.6506 18.6999 32.7006 18.6499L34.9506 17.4499C35.6006 17.0999 36.4506 17.2499 36.9006 17.8499C36.9506 17.8999 36.9506 17.9999 36.9006 18.0499C36.8506 18.0999 36.7506 18.0999 36.7006 18.0499C36.3006 17.5999 35.6506 17.4499 35.1006 17.7499L32.8506 18.9499C32.8506 18.9499 32.8506 18.9499 32.8006 18.9499Z" fill="#FE5000"/>
<path d="M31.1 18.8999H31.05L28.9 17.7499C28.35 17.4499 27.7 17.5999 27.3 18.0499C27.25 18.0999 27.15 18.0999 27.1 18.0499C27.05 17.9999 27.05 17.8999 27.1 17.8499C27.55 17.2499 28.4 17.0999 29.05 17.4499L31.2 18.5999C31.25 18.6499 31.3 18.7499 31.25 18.7999C31.2 18.8499 31.15 18.8999 31.1 18.8999Z" fill="#FE5000"/>
<path d="M33.4506 14.8999H30.5006C30.0506 14.8999 29.6506 15.0499 29.3506 15.3999L29.1006 15.6499L31.4006 18.5499C31.7006 18.8999 32.2006 18.8999 32.5006 18.5499L34.8006 15.6499L34.5506 15.3999C34.3006 15.0999 33.9006 14.8999 33.4506 14.8999Z" fill="#FE5000"/>
<path d="M30.6002 21.4C30.5002 21.4 30.4502 21.35 30.4502 21.25V18.1C30.4502 18 30.5002 17.95 30.6002 17.95C30.7002 17.95 30.7502 18 30.7502 18.1V21.25C30.7502 21.35 30.6502 21.4 30.6002 21.4Z" fill="#FE5000"/>
<path d="M33.4 21.4C33.3 21.4 33.25 21.35 33.25 21.25V18.1C33.25 18 33.3 17.95 33.4 17.95C33.5 17.95 33.55 18 33.55 18.1V21.25C33.55 21.35 33.5 21.4 33.4 21.4Z" fill="#FE5000"/>
</svg>
